# xmcd CD database file
#
# Track frame offsets:
#	150
#	21302
#	41369
#	86574
#	122185
#	147709
#	177174
#	203677
#	241629
#	275070
#	304528
#
# Disc length: 4477 seconds
#
# Revision: 0
# Processed by: cddbd v1.5.1PL0 Copyright (c) Steve Scherf et al.
# Submitted via: CDex 1.51
#
DISCID=95117b0b
DTITLE=Jehan - Jenan's Goddess Dance
DYEAR=1900
DGENRE=New Age
TTITLE0=Pharoah's Procession
TTITLE1=Urban Gypsy
TTITLE2=Inner Flight
TTITLE3=Dark Side of the Oud
TTITLE4=Enter the Temple
TTITLE5=Come Darkness
TTITLE6=Om Shanti
TTITLE7=Mysterium
TTITLE8=Returning
TTITLE9=Conversations at the Hammam
TTITLE10=Serpent Rising
EXTD=
EXTT0=
EXTT1=
EXTT2=
EXTT3=
EXTT4=
EXTT5=
EXTT6=
EXTT7=
EXTT8=
EXTT9=
EXTT10=
PLAYORDER=
